<svg xmlns="http://www.w3.org/2000/svg" viewBox="0 0 32 32" width="32" height="32">
  <!-- Background circle -->
  <circle cx="16" cy="16" r="15" fill="#667eea" stroke="#764ba2" stroke-width="2"/>
  
  <!-- Microservices dots pattern -->
  <circle cx="8" cy="8" r="2" fill="#ffffff"/>
  <circle cx="16" cy="8" r="2" fill="#ffffff"/>
  <circle cx="24" cy="8" r="2" fill="#ffffff"/>
  
  <circle cx="8" cy="16" r="2" fill="#ffffff"/>
  <circle cx="16" cy="16" r="3" fill="#ffffff"/>
  <circle cx="24" cy="16" r="2" fill="#ffffff"/>
  
  <circle cx="8" cy="24" r="2" fill="#ffffff"/>
  <circle cx="16" cy="24" r="2" fill="#ffffff"/>
  <circle cx="24" cy="24" r="2" fill="#ffffff"/>
  
  <!-- Connection lines -->
  <line x1="8" y1="8" x2="16" y2="16" stroke="#ffffff" stroke-width="1" opacity="0.7"/>
  <line x1="16" y1="8" x2="16" y2="16" stroke="#ffffff" stroke-width="1" opacity="0.7"/>
  <line x1="24" y1="8" x2="16" y2="16" stroke="#ffffff" stroke-width="1" opacity="0.7"/>
  <line x1="8" y1="16" x2="16" y2="16" stroke="#ffffff" stroke-width="1" opacity="0.7"/>
  <line x1="24" y1="16" x2="16" y2="16" stroke="#ffffff" stroke-width="1" opacity="0.7"/>
  <line x1="8" y1="24" x2="16" y2="16" stroke="#ffffff" stroke-width="1" opacity="0.7"/>
  <line x1="16" y1="24" x2="16" y2="16" stroke="#ffffff" stroke-width="1" opacity="0.7"/>
  <line x1="24" y1="24" x2="16" y2="16" stroke="#ffffff" stroke-width="1" opacity="0.7"/>
</svg>
